PathFileType	4	(X/Y/Z)	c:/Users/goper/Files/vsCode/490R/osim_files/C05/C05_Static.trc
DataRate	CameraRate	NumFrames	NumMarkers	Units                	OrigDataRate	OrigDataStartFrame	OrigNumFrames
250.00	250.00	7	36	mm	250.0	231	1840
                Frame#	Time	LPSIS			LASIS			LTH1			LTH2			LTH3			LTH4			LLFE			LMFE			LSH1			LSH2			LSH3			LSH4			LLMAL			LMMAL			LCAL			LMTP5			LTOE			LMTP1			RPSIS			RASIS			RTH1			RTH2			RTH3			RTH4			RLFE			RMFE			RSH1			RSH2			RSH3			RSH4			RLMAL			RMMAL			RCAL			RMTP1			RTOE			RMTP5		
		X1	Y1	Z1	X2	Y2	Z2	X3	Y3	Z3	X4	Y4	Z4	X5	Y5	Z5	X6	Y6	Z6	X7	Y7	Z7	X8	Y8	Z8	X9	Y9	Z9	X10	Y10	Z10	X11	Y11	Z11	X12	Y12	Z12	X13	Y13	Z13	X14	Y14	Z14	X15	Y15	Z15	X16	Y16	Z16	X17	Y17	Z17	X18	Y18	Z18	X19	Y19	Z19	X20	Y20	Z20	X21	Y21	Z21	X22	Y22	Z22	X23	Y23	Z23	X24	Y24	Z24	X25	Y25	Z25	X26	Y26	Z26	X27	Y27	Z27	X28	Y28	Z28	X29	Y29	Z29	X30	Y30	Z30	X31	Y31	Z31	X32	Y32	Z32	X33	Y33	Z33	X34	Y34	Z34	X35	Y35	Z35	X36	Y36	Z36

231	0.92000	-422.57632	1063.06799	414.42047	-229.98251	1023.13342	349.37665	-370.81522	714.63239	281.08752	-366.56720	651.83643	283.87570	-294.31049	713.23004	277.11044	-299.74835	652.00922	280.89932	-333.44815	542.95990	290.93027	-335.19354	522.23755	408.54041	-436.06070	370.58121	277.68213	-431.66260	326.68658	278.15848	-374.42685	370.81100	258.70831	-379.94492	327.71555	262.65216	-396.20206	97.26557	287.59814	-359.87479	108.28208	367.58585	-447.73846	68.45477	343.33832	-262.06451	40.91402	237.88722	-216.84807	65.09224	292.76242	-224.23396	45.45857	341.55145	-414.86307	1067.64526	522.10889	-222.20609	1025.85193	580.81067	-360.13745	717.12720	659.20532	-360.86053	654.10083	655.83313	-285.47415	710.12067	664.28406	-296.66525	648.04047	660.89203	-314.43463	535.41467	645.68756	-341.12927	507.37955	541.57617	-399.88507	386.23050	681.20654	-396.36194	338.32828	679.44452	-340.09198	382.25653	673.98517	-345.16904	335.84335	672.82184	-377.02902	96.37671	649.13409	-364.51126	109.47546	564.22424	-445.32788	68.52917	608.15344	-232.73822	40.83696	557.83276	-207.11209	63.82664	603.37213	-249.72588	34.02160	672.66119
232	0.92400	-422.63730	1063.06897	414.43237	-229.97958	1023.15424	349.38602	-370.81381	714.62311	281.08035	-366.56018	651.81458	283.87735	-294.30490	713.24243	277.13510	-299.76639	651.98236	280.91269	-333.45218	542.94995	290.92578	-335.24335	522.22565	408.55777	-436.06808	370.57755	277.67920	-431.76886	326.52292	278.16501	-374.43820	370.80643	258.71902	-379.93945	327.70538	262.63559	-396.21478	97.26765	287.59036	-359.87766	108.27964	367.58234	-447.76657	68.47809	343.31396	-262.06711	40.91076	237.88765	-216.86073	65.09973	292.73911	-224.21260	45.46276	341.52029	-414.88333	1067.65820	522.09192	-222.21892	1025.86584	580.80365	-360.13348	717.12653	659.21008	-360.87866	654.12848	655.85254	-285.47971	710.13428	664.30750	-296.67807	648.07440	660.89062	-314.44946	535.41998	645.67560	-341.20920	507.36356	541.60571	-399.89978	386.22702	681.19666	-396.38815	338.33743	679.45050	-340.10223	382.27206	673.97827	-345.19009	335.84811	672.83459	-377.04666	96.37617	649.12036	-364.53336	109.45713	564.24847	-445.41779	68.49026	608.21466	-232.73460	40.83186	557.83636	-207.11253	63.83212	603.37878	-249.72824	34.02872	672.67554
233	0.92800	-422.63608	1063.05481	414.45294	-229.96416	1023.16998	349.38342	-370.83551	714.64062	281.11023	-366.56293	651.82611	283.89383	-294.29288	713.23456	277.11951	-299.77151	651.99390	280.91602	-333.44485	542.95801	290.91064	-335.19110	522.25592	408.52979	-436.09207	370.56824	277.69769	-431.69864	326.65475	278.16660	-374.44235	370.80811	258.71707	-379.95520	327.70074	262.65012	-396.19232	97.25739	287.61349	-359.85608	108.29294	367.55902	-447.75342	68.48080	343.30878	-262.04092	40.93770	237.88055	-216.82007	65.14841	292.72961	-224.18388	45.52199	341.49564	-414.88440	1067.67517	522.09613	-222.21286	1025.87549	580.80042	-360.15387	717.12537	659.18408	-360.92004	654.13885	655.81647	-285.45490	710.15106	664.27435	-296.64670	648.09595	660.86200	-314.42615	535.43713	645.68488	-341.27090	507.27853	541.63989	-399.93811	386.24786	681.17865	-396.38623	338.33862	679.42230	-340.08899	382.28525	673.96613	-345.17929	335.86133	672.80450	-377.06006	96.37968	649.12616	-364.52982	109.46555	564.23364	-445.43289	68.52972	608.19379	-232.74786	40.82074	557.83240	-207.08995	63.84244	603.37494	-249.71924	34.03505	672.66528
234	0.93200	-422.62033	1063.04346	414.45825	-229.98047	1023.16321	349.37076	-370.84720	714.62067	281.13174	-366.55881	651.81274	283.89307	-294.31540	713.24420	277.14069	-299.76602	652.00012	280.92044	-333.45923	542.94537	290.92032	-335.19669	522.23608	408.55423	-436.08783	370.55859	277.70932	-431.64832	326.69333	278.14365	-374.46344	370.79425	258.73880	-379.96243	327.69211	262.65808	-396.21445	97.26160	287.61636	-359.86890	108.30366	367.57220	-447.78778	68.50774	343.31769	-262.06668	40.91155	237.90376	-216.85680	65.15306	292.71646	-224.18790	45.50955	341.47876	-414.92300	1067.65479	522.09674	-222.21559	1025.87976	580.79889	-360.16861	717.14343	659.19843	-360.90717	654.14673	655.83301	-285.46884	710.15454	664.28448	-296.62790	648.11884	660.88098	-314.42313	535.45459	645.67249	-341.20746	507.33521	541.57062	-399.92441	386.25201	681.19189	-396.40729	338.34518	679.44702	-340.10648	382.28381	673.97028	-345.16708	335.87918	672.80579	-377.05762	96.36682	649.12384	-364.52417	109.45724	564.25769	-445.44183	68.53651	608.21423	-232.75574	40.81193	557.86505	-207.10744	63.82580	603.37384	-249.73163	34.04375	672.67358
235	0.93600	-422.61490	1063.04065	414.48346	-229.97389	1023.16339	349.37622	-370.86447	714.61316	281.13776	-366.60056	651.80518	283.92764	-294.33212	713.24463	277.12888	-299.78571	651.99982	280.90939	-333.43332	542.96210	290.92349	-335.22665	522.22852	408.55438	-436.09036	370.56583	277.71741	-431.68619	326.65646	278.17401	-374.46280	370.79715	258.73615	-379.96176	327.68741	262.66556	-396.20477	97.25716	287.62820	-359.86450	108.28722	367.56778	-447.74722	68.49668	343.32776	-262.06610	40.93259	237.89951	-216.82344	65.14412	292.74152	-224.17931	45.50016	341.47079	-414.90201	1067.66541	522.10870	-222.22064	1025.87537	580.79645	-360.15274	717.13763	659.21045	-360.92224	654.15289	655.83960	-285.46033	710.15784	664.28302	-296.62283	648.10895	660.87854	-314.43124	535.43372	645.67102	-341.16904	507.34772	541.54504	-399.90363	386.24966	681.19592	-396.39832	338.34406	679.44910	-340.10980	382.28937	673.95367	-345.16476	335.87527	672.79425	-377.02719	96.37680	649.13940	-364.54276	109.44909	564.25775	-445.41376	68.53101	608.23694	-232.75183	40.81619	557.85846	-207.09129	63.84490	603.38782	-249.72363	34.04168	672.67255
236	0.94000	-422.61063	1063.01672	414.47427	-229.97897	1023.16992	349.35693	-370.89670	714.63214	281.14514	-366.59601	651.82764	283.91513	-294.28970	713.24524	277.12161	-299.77121	652.01019	280.92828	-333.44122	542.98767	290.90948	-335.20963	522.21820	408.57977	-436.10138	370.56918	277.70493	-431.83893	326.48755	278.22473	-374.45728	370.80615	258.72934	-379.99408	327.69553	262.65347	-396.22128	97.26209	287.62564	-359.86240	108.27854	367.57642	-447.70697	68.46091	343.33972	-262.05981	40.92517	237.89507	-216.82811	65.14294	292.73770	-224.14592	45.51363	341.46970	-414.89203	1067.63501	522.10992	-222.23648	1025.88062	580.80048	-360.14755	717.13959	659.21619	-360.85519	654.14130	655.87219	-285.46646	710.15021	664.31409	-296.63416	648.09637	660.89374	-314.44568	535.42932	645.67670	-341.27762	507.28946	541.61310	-399.88614	386.23328	681.19934	-396.37720	338.35233	679.46539	-340.10760	382.27853	673.97565	-345.18668	335.85400	672.81891	-377.01630	96.36561	649.14349	-364.52640	109.47994	564.24731	-445.40201	68.53184	608.23346	-232.74254	40.83568	557.84943	-207.10054	63.85097	603.39514	-249.84442	33.85321	672.55273
237	0.94400	-422.61612	1063.03198	414.49063	-229.99474	1023.17059	349.36920	-370.88596	714.63196	281.13214	-366.62323	651.81183	283.92059	-294.31909	713.26562	277.11511	-299.77655	652.03442	280.91528	-333.46368	542.98206	290.91238	-335.21915	522.21185	408.56744	-436.12210	370.56177	277.70950	-431.67603	326.70660	278.13327	-374.46005	370.81592	258.72278	-380.03171	327.68164	262.65851	-396.23029	97.27071	287.62921	-359.87439	108.26068	367.56937	-447.70242	68.44280	343.34778	-262.05438	40.93666	237.88658	-216.85255	65.11697	292.74390	-223.95985	45.53002	341.30783	-414.86288	1067.60645	522.12891	-222.26202	1025.87158	580.80548	-360.14291	717.11719	659.23138	-360.92068	654.11469	655.85498	-285.47226	710.11951	664.30145	-296.68494	648.05151	660.89233	-314.45947	535.42175	645.68744	-341.17630	507.36548	541.57233	-399.90631	386.22653	681.20349	-396.37912	338.33185	679.47278	-340.11304	382.26947	673.96594	-345.16452	335.85245	672.82263	-377.02008	96.35046	649.15295	-364.52637	109.46767	564.23981	-445.39160	68.52209	608.25574	-232.73935	40.84851	557.85333	-207.10834	63.85667	603.38171	-249.73317	34.03354	672.69153
